<svg viewBox="0 0 344 480" fill="none" xmlns="http://www.w3.org/2000/svg"
    style="fill-rule:evenodd;clip-rule:evenodd;stroke-linejoin:round;stroke-miterlimit:2;">
    <path
        d="M343.052,146.296l0,296.114c0,12.515 -6.228,24.209 -16.613,31.192c-10.385,6.984 -23.564,8.342 -35.154,3.622l-17.122,-6.973l-116.475,-201.741l-99.72,0l0,113.695l-33.608,-13.687c-14.157,-5.765 -23.412,-19.529 -23.412,-34.814l-0,-296.114c-0,-12.515 6.228,-24.209 16.613,-31.192c10.385,-6.984 23.564,-8.342 35.154,-3.622l22.74,9.261l115.154,199.453l95.423,-0l-0,-113.695l33.608,13.687c14.157,5.765 23.412,19.529 23.412,34.814Zm-285.084,65.194l66.799,-0l-66.799,-115.698l0,115.698Zm228.064,165.276l-0,-108.256l-62.502,0l62.502,108.256Z"
        id="favicon-shape" />
    <style>
        #favicon-shape {
            fill: #000;
        }

        @media (prefers-color-scheme: dark) {
            #favicon-shape {
                fill: #fff;
            }
        }
    </style>
</svg>